<?xml version="1.0" encoding="UTF-8"?>
<svg id="_图层_1" data-name="图层 1" xmlns="http://www.w3.org/2000/svg" viewBox="0 0 1085.72 633.91">
    <defs>
        <style>
            .cls-1, .cls-2, .cls-3, .cls-4 {
            stroke-miterlimit: 10;
            }

            .cls-1, .cls-3 {
            stroke: #00a0e9;
            }

            .cls-1, .cls-3, .cls-5 {
            fill: #00a0e9;
            }

            .cls-2, .cls-4 {
            stroke: #231815;
            }

            .cls-2, .cls-4, .cls-6 {
            fill: #231815;
            }

            .cls-3, .cls-4 {
            stroke-width: 30px;
            }

            .cls-7 {
            font-family: DengXian-Bold, DengXian;
            font-size: 72px;
            font-weight: 700;
            }
        </style>
    </defs>
    <polyline class="cls-4" points="298.7 17.32 341.22 59.84 371.07 89.7 383.51 102.13 399.08 117.7 412.09 130.71"/>
    <polyline class="cls-4" points="160.15 10.61 202.67 53.13 232.53 82.98 244.96 95.41 260.53 110.98 273.54 123.99"/>
    <polyline class="cls-4"
              points="86.19 308.14 128.71 265.62 158.56 235.77 170.99 223.33 186.56 207.76 199.57 194.75"/>
    <polyline class="cls-4" points="44.79 494.31 87.31 451.79 117.16 421.94 129.59 409.51 145.16 393.94 158.18 380.93"/>
    <polyline class="cls-4"
              points="143.95 373.91 166.28 396.24 181.95 411.91 188.48 418.44 196.66 426.62 203.49 433.45"/>
    <polyline class="cls-4"
              points="264.94 502.28 307.46 544.8 337.31 574.65 349.75 587.09 365.32 602.66 378.33 615.67"/>
    <polyline class="cls-4"
              points="337.53 194.07 380.05 236.59 409.9 266.45 422.34 278.88 437.91 294.45 450.92 307.46"/>
    <polyline class="cls-3"
              points="269.26 512.86 269.26 363.08 269.26 257.92 269.26 214.12 269.26 159.28 269.26 113.44"/>
    <polyline class="cls-3" points="265.72 265.82 170.06 170.15 102.89 102.98 74.92 75.01 39.88 39.97 10.61 10.7"/>
    <polyline class="cls-3" points="527.91 10.7 432.24 106.37 365.08 173.53 337.11 201.51 302.07 236.54 272.8 265.82"/>
    <polyline class="cls-3" points="527.91 623.31 432.24 527.64 365.08 460.47 337.11 432.5 302.07 397.46 272.8 368.19"/>
    <polyline class="cls-3" points="265.72 368.19 170.06 463.86 102.89 531.02 74.92 559 39.88 594.03 10.61 623.31"/>
    <text class="cls-7" transform="translate(343.74 389.31)">
        <tspan class="cls-5" x="0" y="0">Mu</tspan>
        <tspan class="cls-2" x="108.56" y="0">du</tspan>
        <tspan class="cls-1" x="193.96" y="0">D</tspan>
        <tspan class="cls-6" x="245.6" y="0">B</tspan>
    </text>
    <text/>
</svg>